# xmcd CD database file
#
# Track frame offsets:
#	150
#	20412
#	40892
#	63192
#	101335
#	121905
#	145587
#	167077
#	196237
#	218497
#	236667
#
# Disc length: 3199 seconds
#
# Revision: 0
# Processed by: cddbd v1.4PL0 Copyright (c) Steve Scherf et al.
# Submitted via: CDex 1.50beta10
#
DISCID=890c7d0b
DTITLE=kokubu hiroko - piano letter
DYEAR=1900
DGENRE=Jazz
TTITLE0=River Dance
TTITLE1=Go Go Godzilla
TTITLE2=For Your Birthday
TTITLE3=Sakura-Dayori
TTITLE4=Snow White
TTITLE5=Azzurro Fantasia
TTITLE6=The Stranger
TTITLE7=Across The Miles
TTITLE8=Wasurenai-Yo
TTITLE9=Sekai Wa Melody
TTITLE10=See You Soon
EXTD=
EXTT0=
EXTT1=
EXTT2=
EXTT3=
EXTT4=
EXTT5=
EXTT6=
EXTT7=
EXTT8=
EXTT9=
EXTT10=
PLAYORDER=
